<svg xmlns="http://www.w3.org/2000/svg" xmlns:xlink="http://www.w3.org/1999/xlink" id="Layer_1" x="0px" y="0px" viewBox="0 0 260 75.4" style="enable-background:new 0 0 260 75.4;" xml:space="preserve"><style type="text/css">	.st0{fill:#FFFFFF;}</style><g>	<g>		<path class="st0" d="M146.5,25v14.1c0,3.9,0.7,6.7,2,8.3c1.3,1.6,3.4,2.5,6.3,2.5h4.4v7.5c-3.4,0-3.8,0-7.9,0   c-3.7,0-6.7-1.4-9.3-4.1c-2.5-2.7-3.8-6.2-3.8-10.3V25v-6.5v-7.2h8.2v7.2V25C146.4,25,146.5,25,146.5,25z"></path>		<path class="st0" d="M6.5,4.1C6.5,1.9,8.3,0,10.6,0c2.2,0,4.1,1.8,4.1,4.1c0,2.2-1.8,4.1-4.1,4.1C8.3,8.1,6.5,6.3,6.5,4.1"></path>		<path class="st0" d="M60.6,4.1c0-2.2,1.8-4.1,4.1-4.1c2.2,0,4.1,1.8,4.1,4.1c0,2.2-1.8,4.1-4.1,4.1C62.4,8.1,60.6,6.3,60.6,4.1"></path>		<path class="st0" d="M115.1,4.1c0-2.2,1.8-4.1,4.1-4.1c2.2,0,4.1,1.8,4.1,4.1c0,2.2-1.8,4.1-4.1,4.1   C116.9,8.1,115.1,6.3,115.1,4.1"></path>		<path class="st0" d="M169.3,4.1c0-2.2,1.8-4.1,4.1-4.1c2.2,0,4.1,1.8,4.1,4.1c0,2.2-1.8,4.1-4.1,4.1   C171.1,8.1,169.3,6.3,169.3,4.1"></path>		<path class="st0" d="M222.5,4.1c0-2.2,1.8-4.1,4.1-4.1c2.2,0,4.1,1.8,4.1,4.1c0,2.2-1.8,4.1-4.1,4.1   C224.3,8.1,222.5,6.3,222.5,4.1"></path>	</g>	<polygon class="st0" points="6.4,57.4 6.4,25.4 0,25.4 0,18.5 14.6,18.5 14.6,57.4  "></polygon>	<g>		<path class="st0" d="M56,57.4V38.5c0-4.9-0.7-8.4-2.2-10.3c-1.5-2-4-3-7.5-3c-1.9,0-3.8,0.6-5.9,1.7c-2,1.1-3.6,2.5-4.7,4.1v26.4   h-8.2V18.5h8.4l-0.2,6.6c2.7-4.5,7.1-6.8,13.3-6.8c10.1,0,15.2,6.2,15.2,18.5v20.6H56z"></path>		<path class="st0" d="M78.8,24.9h-5.3v-6.4h5.3v-7.2H87v7.2h12.7v6.4H87V39c0,3.9,0.7,6.7,2,8.3c1.3,1.6,3.4,2.5,6.3,2.5h4.4v7.5   c-3.4,0-3.8,0-7.9,0c-3.7,0-6.7-1.4-9.3-4.1c-2.5-2.7-3.8-6.1-3.8-10.3v-18C78.7,24.9,78.8,24.9,78.8,24.9z"></path>		<path class="st0" d="M193.3,24.9H188v-6.4h5.3v-7.2h8.2v7.2h12.7v6.4h-12.7V39c0,3.9,0.7,6.7,2,8.3c1.3,1.6,3.4,2.5,6.3,2.5h4.4   v7.5c-3.4,0-3.8,0-7.9,0c-3.7,0-6.7-1.4-9.3-4.1c-2.5-2.7-3.8-6.1-3.8-10.3v-18C193.2,24.9,193.3,24.9,193.3,24.9z"></path>	</g>	<polygon class="st0" points="115,57.4 115,25.4 108.6,25.4 108.6,18.5 123.2,18.5 123.2,57.4  "></polygon>	<polygon class="st0" points="169.2,57.4 169.2,25.4 162.9,25.4 162.9,18.5 177.4,18.5 177.4,57.4  "></polygon>	<path class="st0" d="M243.1,65.2c-1.1,2.9-3.3,5.4-6.7,7.3c-3.4,2-7.2,2.9-11.4,2.9V68c3.4,0,6.3-0.8,8.8-2.4  c2.4-1.6,3.6-3.6,3.6-5.9c0-2.5-0.4-5-1.3-7.5c-0.9-2.5-2-5.5-3.5-9.1l-9.8-24.8h8.4L242,46.7l9.6-28.4h8.4L243.1,65.2z"></path></g></svg>